<?xml version="1.0" encoding="UTF-8"?>
<svg class="icon" width="205.66" height="200" p-id="4288" t="1736037704585" version="1.1" viewBox="0 0 1053 1024" xmlns="http://www.w3.org/2000/svg">
 <path d="m526.55 0.092c-125.96 0-228.05 102.09-228.05 228.03-119.77-38.914-248.35 26.709-287.27 146.48-38.92 119.8 26.551 248.35 146.33 287.28-74.025 101.88-51.42 244.48 50.47 318.51 101.88 74.024 244.48 51.42 318.51-50.47 74.024 101.88 216.77 124.49 318.66 50.47 101.88-74.024 124.34-216.62 50.318-318.51 119.77-38.918 185.4-167.5 146.48-287.27-38.93-119.83-167.63-185.46-287.42-146.54 0-125.94-102.07-228.03-228.06-228.03z" fill="#DE0010" p-id="4289"/>
</svg>
